<mxfile host="app.diagrams.net" agent="Mozilla/5.0 (Windows NT 10.0; Win64; x64) AppleWebKit/537.36 (KHTML, like Gecko) Chrome/128.0.0.0 Safari/537.36" version="24.7.14">
  <diagram name="PÃ¡gina-1" id="lY2RoBOl0yCl_IdPlNI3">
    <mxGraphModel dx="1105" dy="1718" grid="1" gridSize="10" guides="1" tooltips="1" connect="1" arrows="1" fold="1" page="1" pageScale="1" pageWidth="827" pageHeight="1169" math="0" shadow="0">
      <root>
        <mxCell id="0" />
        <mxCell id="1" parent="0" />
        <mxCell id="c1m6tsCIZ5Yn01nc472a-1" value="Media" style="rounded=1;whiteSpace=wrap;html=1;" parent="1" vertex="1">
          <mxGeometry x="451" y="4" width="120" height="60" as="geometry" />
        </mxCell>
        <mxCell id="c1m6tsCIZ5Yn01nc472a-2" value="User" style="rounded=1;whiteSpace=wrap;html=1;" parent="1" vertex="1">
          <mxGeometry x="451" y="284" width="120" height="60" as="geometry" />
        </mxCell>
        <mxCell id="c1m6tsCIZ5Yn01nc472a-4" value="reviews" style="rhombus;whiteSpace=wrap;html=1;" parent="1" vertex="1">
          <mxGeometry x="476" y="149" width="70" height="70" as="geometry" />
        </mxCell>
        <mxCell id="c1m6tsCIZ5Yn01nc472a-5" value="L&lt;span style=&quot;background-color: initial;&quot;&gt;ist&lt;/span&gt;" style="rounded=1;whiteSpace=wrap;html=1;" parent="1" vertex="1">
          <mxGeometry x="801" y="114" width="120" height="60" as="geometry" />
        </mxCell>
        <mxCell id="c1m6tsCIZ5Yn01nc472a-6" value="" style="endArrow=none;html=1;rounded=0;" parent="1" source="c1m6tsCIZ5Yn01nc472a-4" target="c1m6tsCIZ5Yn01nc472a-1" edge="1">
          <mxGeometry width="50" height="50" relative="1" as="geometry">
            <mxPoint x="401" y="254" as="sourcePoint" />
            <mxPoint x="451" y="204" as="targetPoint" />
          </mxGeometry>
        </mxCell>
        <mxCell id="c1m6tsCIZ5Yn01nc472a-57" value="N" style="edgeLabel;html=1;align=center;verticalAlign=middle;resizable=0;points=[];" parent="c1m6tsCIZ5Yn01nc472a-6" vertex="1" connectable="0">
          <mxGeometry x="0.2601" y="2" relative="1" as="geometry">
            <mxPoint x="-8" y="47" as="offset" />
          </mxGeometry>
        </mxCell>
        <mxCell id="c1m6tsCIZ5Yn01nc472a-7" value="" style="endArrow=none;html=1;rounded=0;" parent="1" source="c1m6tsCIZ5Yn01nc472a-2" target="c1m6tsCIZ5Yn01nc472a-4" edge="1">
          <mxGeometry width="50" height="50" relative="1" as="geometry">
            <mxPoint x="521" y="154" as="sourcePoint" />
            <mxPoint x="521" y="124" as="targetPoint" />
          </mxGeometry>
        </mxCell>
        <mxCell id="c1m6tsCIZ5Yn01nc472a-56" value="N" style="edgeLabel;html=1;align=center;verticalAlign=middle;resizable=0;points=[];" parent="c1m6tsCIZ5Yn01nc472a-7" vertex="1" connectable="0">
          <mxGeometry x="0.5624" y="-1" relative="1" as="geometry">
            <mxPoint x="-12" y="-3" as="offset" />
          </mxGeometry>
        </mxCell>
        <mxCell id="c1m6tsCIZ5Yn01nc472a-10" value="belongs" style="rhombus;whiteSpace=wrap;html=1;" parent="1" vertex="1">
          <mxGeometry x="829.5" y="281" width="63" height="66" as="geometry" />
        </mxCell>
        <mxCell id="c1m6tsCIZ5Yn01nc472a-11" value="" style="endArrow=none;html=1;rounded=0;" parent="1" source="c1m6tsCIZ5Yn01nc472a-10" target="c1m6tsCIZ5Yn01nc472a-5" edge="1">
          <mxGeometry width="50" height="50" relative="1" as="geometry">
            <mxPoint x="861" y="260" as="sourcePoint" />
            <mxPoint x="831" y="284" as="targetPoint" />
          </mxGeometry>
        </mxCell>
        <mxCell id="c1m6tsCIZ5Yn01nc472a-60" value="N" style="edgeLabel;html=1;align=center;verticalAlign=middle;resizable=0;points=[];" parent="c1m6tsCIZ5Yn01nc472a-11" vertex="1" connectable="0">
          <mxGeometry x="-0.4381" y="-3" relative="1" as="geometry">
            <mxPoint x="6" y="23" as="offset" />
          </mxGeometry>
        </mxCell>
        <mxCell id="c1m6tsCIZ5Yn01nc472a-12" value="isOwner" style="ellipse;whiteSpace=wrap;html=1;" parent="1" vertex="1">
          <mxGeometry x="904" y="296" width="70" height="36" as="geometry" />
        </mxCell>
        <mxCell id="c1m6tsCIZ5Yn01nc472a-13" value="" style="endArrow=none;html=1;rounded=0;" parent="1" source="c1m6tsCIZ5Yn01nc472a-10" target="c1m6tsCIZ5Yn01nc472a-12" edge="1">
          <mxGeometry width="50" height="50" relative="1" as="geometry">
            <mxPoint x="891" y="281" as="sourcePoint" />
            <mxPoint x="841" y="301" as="targetPoint" />
          </mxGeometry>
        </mxCell>
        <mxCell id="c1m6tsCIZ5Yn01nc472a-14" value="comment" style="ellipse;whiteSpace=wrap;html=1;" parent="1" vertex="1">
          <mxGeometry x="406" y="109" width="70" height="40" as="geometry" />
        </mxCell>
        <mxCell id="c1m6tsCIZ5Yn01nc472a-15" value="rating" style="ellipse;whiteSpace=wrap;html=1;" parent="1" vertex="1">
          <mxGeometry x="536" y="114" width="70" height="40" as="geometry" />
        </mxCell>
        <mxCell id="c1m6tsCIZ5Yn01nc472a-16" value="" style="endArrow=none;html=1;rounded=0;" parent="1" source="c1m6tsCIZ5Yn01nc472a-14" target="c1m6tsCIZ5Yn01nc472a-4" edge="1">
          <mxGeometry width="50" height="50" relative="1" as="geometry">
            <mxPoint x="731" y="284" as="sourcePoint" />
            <mxPoint x="731" y="224" as="targetPoint" />
          </mxGeometry>
        </mxCell>
        <mxCell id="c1m6tsCIZ5Yn01nc472a-17" value="" style="endArrow=none;html=1;rounded=0;" parent="1" source="c1m6tsCIZ5Yn01nc472a-15" target="c1m6tsCIZ5Yn01nc472a-4" edge="1">
          <mxGeometry width="50" height="50" relative="1" as="geometry">
            <mxPoint x="480" y="168" as="sourcePoint" />
            <mxPoint x="501" y="184" as="targetPoint" />
          </mxGeometry>
        </mxCell>
        <mxCell id="c1m6tsCIZ5Yn01nc472a-18" value="created_at" style="ellipse;whiteSpace=wrap;html=1;" parent="1" vertex="1">
          <mxGeometry x="389" y="164" width="70" height="40" as="geometry" />
        </mxCell>
        <mxCell id="c1m6tsCIZ5Yn01nc472a-19" value="" style="endArrow=none;html=1;rounded=0;" parent="1" source="c1m6tsCIZ5Yn01nc472a-18" target="c1m6tsCIZ5Yn01nc472a-4" edge="1">
          <mxGeometry width="50" height="50" relative="1" as="geometry">
            <mxPoint x="561" y="194" as="sourcePoint" />
            <mxPoint x="671" y="194" as="targetPoint" />
          </mxGeometry>
        </mxCell>
        <mxCell id="c1m6tsCIZ5Yn01nc472a-20" value="Refresh Token" style="rounded=1;whiteSpace=wrap;html=1;" parent="1" vertex="1">
          <mxGeometry x="180" y="284" width="120" height="60" as="geometry" />
        </mxCell>
        <mxCell id="c1m6tsCIZ5Yn01nc472a-21" value="has" style="rhombus;whiteSpace=wrap;html=1;" parent="1" vertex="1">
          <mxGeometry x="350" y="284" width="56" height="60" as="geometry" />
        </mxCell>
        <mxCell id="c1m6tsCIZ5Yn01nc472a-22" value="" style="endArrow=none;html=1;rounded=0;" parent="1" source="c1m6tsCIZ5Yn01nc472a-2" target="c1m6tsCIZ5Yn01nc472a-21" edge="1">
          <mxGeometry width="50" height="50" relative="1" as="geometry">
            <mxPoint x="581" y="324" as="sourcePoint" />
            <mxPoint x="417" y="314" as="targetPoint" />
          </mxGeometry>
        </mxCell>
        <mxCell id="c1m6tsCIZ5Yn01nc472a-62" value="1" style="edgeLabel;html=1;align=center;verticalAlign=middle;resizable=0;points=[];" parent="c1m6tsCIZ5Yn01nc472a-22" vertex="1" connectable="0">
          <mxGeometry x="0.3827" relative="1" as="geometry">
            <mxPoint x="-10" y="-12" as="offset" />
          </mxGeometry>
        </mxCell>
        <mxCell id="c1m6tsCIZ5Yn01nc472a-23" value="" style="endArrow=none;html=1;rounded=0;" parent="1" source="c1m6tsCIZ5Yn01nc472a-21" target="c1m6tsCIZ5Yn01nc472a-20" edge="1">
          <mxGeometry width="50" height="50" relative="1" as="geometry">
            <mxPoint x="450" y="324" as="sourcePoint" />
            <mxPoint x="416" y="324" as="targetPoint" />
          </mxGeometry>
        </mxCell>
        <mxCell id="c1m6tsCIZ5Yn01nc472a-63" value="1" style="edgeLabel;html=1;align=center;verticalAlign=middle;resizable=0;points=[];" parent="c1m6tsCIZ5Yn01nc472a-23" vertex="1" connectable="0">
          <mxGeometry x="-0.1067" y="-1" relative="1" as="geometry">
            <mxPoint x="17" y="-12" as="offset" />
          </mxGeometry>
        </mxCell>
        <mxCell id="c1m6tsCIZ5Yn01nc472a-24" value="value" style="ellipse;whiteSpace=wrap;html=1;" parent="1" vertex="1">
          <mxGeometry x="203.75" y="224" width="72.5" height="40" as="geometry" />
        </mxCell>
        <mxCell id="c1m6tsCIZ5Yn01nc472a-25" value="created_at" style="ellipse;whiteSpace=wrap;html=1;" parent="1" vertex="1">
          <mxGeometry x="80" y="294" width="80" height="40" as="geometry" />
        </mxCell>
        <mxCell id="c1m6tsCIZ5Yn01nc472a-26" value="" style="endArrow=none;html=1;rounded=0;" parent="1" source="c1m6tsCIZ5Yn01nc472a-20" target="c1m6tsCIZ5Yn01nc472a-25" edge="1">
          <mxGeometry width="50" height="50" relative="1" as="geometry">
            <mxPoint x="360" y="324" as="sourcePoint" />
            <mxPoint x="310" y="324" as="targetPoint" />
          </mxGeometry>
        </mxCell>
        <mxCell id="c1m6tsCIZ5Yn01nc472a-27" value="" style="endArrow=none;html=1;rounded=0;" parent="1" source="c1m6tsCIZ5Yn01nc472a-24" target="c1m6tsCIZ5Yn01nc472a-20" edge="1">
          <mxGeometry width="50" height="50" relative="1" as="geometry">
            <mxPoint x="190" y="324" as="sourcePoint" />
            <mxPoint x="160" y="324" as="targetPoint" />
          </mxGeometry>
        </mxCell>
        <mxCell id="c1m6tsCIZ5Yn01nc472a-28" value="name" style="ellipse;whiteSpace=wrap;html=1;" parent="1" vertex="1">
          <mxGeometry x="520" y="414" width="70" height="40" as="geometry" />
        </mxCell>
        <mxCell id="c1m6tsCIZ5Yn01nc472a-29" value="email" style="ellipse;whiteSpace=wrap;html=1;" parent="1" vertex="1">
          <mxGeometry x="440" y="414" width="70" height="40" as="geometry" />
        </mxCell>
        <mxCell id="c1m6tsCIZ5Yn01nc472a-30" value="avatar_url" style="ellipse;whiteSpace=wrap;html=1;" parent="1" vertex="1">
          <mxGeometry x="581" y="374" width="70" height="40" as="geometry" />
        </mxCell>
        <mxCell id="c1m6tsCIZ5Yn01nc472a-31" value="" style="endArrow=none;html=1;rounded=0;" parent="1" source="c1m6tsCIZ5Yn01nc472a-2" target="c1m6tsCIZ5Yn01nc472a-29" edge="1">
          <mxGeometry width="50" height="50" relative="1" as="geometry">
            <mxPoint x="581" y="324" as="sourcePoint" />
            <mxPoint x="698" y="324" as="targetPoint" />
          </mxGeometry>
        </mxCell>
        <mxCell id="c1m6tsCIZ5Yn01nc472a-32" value="" style="endArrow=none;html=1;rounded=0;" parent="1" source="c1m6tsCIZ5Yn01nc472a-2" target="c1m6tsCIZ5Yn01nc472a-28" edge="1">
          <mxGeometry width="50" height="50" relative="1" as="geometry">
            <mxPoint x="493" y="354" as="sourcePoint" />
            <mxPoint x="462" y="386" as="targetPoint" />
          </mxGeometry>
        </mxCell>
        <mxCell id="c1m6tsCIZ5Yn01nc472a-33" value="" style="endArrow=none;html=1;rounded=0;" parent="1" source="c1m6tsCIZ5Yn01nc472a-2" target="c1m6tsCIZ5Yn01nc472a-30" edge="1">
          <mxGeometry width="50" height="50" relative="1" as="geometry">
            <mxPoint x="523" y="354" as="sourcePoint" />
            <mxPoint x="525" y="384" as="targetPoint" />
          </mxGeometry>
        </mxCell>
        <mxCell id="c1m6tsCIZ5Yn01nc472a-34" value="id" style="ellipse;whiteSpace=wrap;html=1;" parent="1" vertex="1">
          <mxGeometry x="370" y="374" width="70" height="40" as="geometry" />
        </mxCell>
        <mxCell id="c1m6tsCIZ5Yn01nc472a-35" value="" style="endArrow=none;html=1;rounded=0;" parent="1" source="c1m6tsCIZ5Yn01nc472a-2" target="c1m6tsCIZ5Yn01nc472a-34" edge="1">
          <mxGeometry width="50" height="50" relative="1" as="geometry">
            <mxPoint x="532" y="354" as="sourcePoint" />
            <mxPoint x="558" y="424" as="targetPoint" />
          </mxGeometry>
        </mxCell>
        <mxCell id="c1m6tsCIZ5Yn01nc472a-36" value="id" style="ellipse;whiteSpace=wrap;html=1;" parent="1" vertex="1">
          <mxGeometry x="950" y="105" width="56" height="34" as="geometry" />
        </mxCell>
        <mxCell id="c1m6tsCIZ5Yn01nc472a-38" value="name" style="ellipse;whiteSpace=wrap;html=1;" parent="1" vertex="1">
          <mxGeometry x="947.5" y="154" width="61" height="32" as="geometry" />
        </mxCell>
        <mxCell id="c1m6tsCIZ5Yn01nc472a-39" value="" style="endArrow=none;html=1;rounded=0;" parent="1" source="c1m6tsCIZ5Yn01nc472a-5" target="c1m6tsCIZ5Yn01nc472a-38" edge="1">
          <mxGeometry width="50" height="50" relative="1" as="geometry">
            <mxPoint x="935" y="9.000000000000002" as="sourcePoint" />
            <mxPoint x="875" y="51" as="targetPoint" />
          </mxGeometry>
        </mxCell>
        <mxCell id="c1m6tsCIZ5Yn01nc472a-40" value="id" style="ellipse;whiteSpace=wrap;html=1;" parent="1" vertex="1">
          <mxGeometry x="389" y="17" width="50" height="34" as="geometry" />
        </mxCell>
        <mxCell id="c1m6tsCIZ5Yn01nc472a-44" value="" style="endArrow=none;html=1;rounded=0;" parent="1" source="c1m6tsCIZ5Yn01nc472a-1" target="c1m6tsCIZ5Yn01nc472a-40" edge="1">
          <mxGeometry width="50" height="50" relative="1" as="geometry">
            <mxPoint x="521" y="159" as="sourcePoint" />
            <mxPoint x="521" y="74" as="targetPoint" />
          </mxGeometry>
        </mxCell>
        <mxCell id="c1m6tsCIZ5Yn01nc472a-65" value="id" style="ellipse;whiteSpace=wrap;html=1;" parent="1" vertex="1">
          <mxGeometry x="560" y="170" width="60" height="28" as="geometry" />
        </mxCell>
        <mxCell id="c1m6tsCIZ5Yn01nc472a-66" value="" style="endArrow=none;html=1;rounded=0;" parent="1" source="c1m6tsCIZ5Yn01nc472a-65" target="c1m6tsCIZ5Yn01nc472a-4" edge="1">
          <mxGeometry width="50" height="50" relative="1" as="geometry">
            <mxPoint x="558" y="156" as="sourcePoint" />
            <mxPoint x="538" y="176" as="targetPoint" />
          </mxGeometry>
        </mxCell>
        <mxCell id="YuNYO20cdC75H4IHi-dq-3" value="" style="endArrow=none;html=1;rounded=0;" parent="1" source="c1m6tsCIZ5Yn01nc472a-1" target="YuNYO20cdC75H4IHi-dq-4" edge="1">
          <mxGeometry width="50" height="50" relative="1" as="geometry">
            <mxPoint x="581" y="22" as="sourcePoint" />
            <mxPoint x="660" y="30" as="targetPoint" />
          </mxGeometry>
        </mxCell>
        <mxCell id="YuNYO20cdC75H4IHi-dq-6" value="N" style="edgeLabel;html=1;align=center;verticalAlign=middle;resizable=0;points=[];" parent="YuNYO20cdC75H4IHi-dq-3" vertex="1" connectable="0">
          <mxGeometry x="0.571" y="-1" relative="1" as="geometry">
            <mxPoint x="54" y="-15" as="offset" />
          </mxGeometry>
        </mxCell>
        <mxCell id="YuNYO20cdC75H4IHi-dq-4" value="has" style="rhombus;whiteSpace=wrap;html=1;" parent="1" vertex="1">
          <mxGeometry x="831" y="4" width="60" height="60" as="geometry" />
        </mxCell>
        <mxCell id="YuNYO20cdC75H4IHi-dq-5" value="" style="endArrow=none;html=1;rounded=0;" parent="1" source="YuNYO20cdC75H4IHi-dq-4" target="c1m6tsCIZ5Yn01nc472a-5" edge="1">
          <mxGeometry width="50" height="50" relative="1" as="geometry">
            <mxPoint x="535" y="44" as="sourcePoint" />
            <mxPoint x="624" y="44" as="targetPoint" />
          </mxGeometry>
        </mxCell>
        <mxCell id="YuNYO20cdC75H4IHi-dq-7" value="N" style="edgeLabel;html=1;align=center;verticalAlign=middle;resizable=0;points=[];" parent="YuNYO20cdC75H4IHi-dq-5" vertex="1" connectable="0">
          <mxGeometry x="-0.472" y="1" relative="1" as="geometry">
            <mxPoint x="-12" y="-7" as="offset" />
          </mxGeometry>
        </mxCell>
        <mxCell id="PL7g-VCCAb1A2ByVVvl3-3" value="whatches" style="rhombus;whiteSpace=wrap;html=1;" parent="1" vertex="1">
          <mxGeometry x="670" y="105" width="76" height="78" as="geometry" />
        </mxCell>
        <mxCell id="PL7g-VCCAb1A2ByVVvl3-4" value="" style="endArrow=none;html=1;rounded=0;exitX=1;exitY=0.5;exitDx=0;exitDy=0;" parent="1" source="PL7g-VCCAb1A2ByVVvl3-3" target="c1m6tsCIZ5Yn01nc472a-5" edge="1">
          <mxGeometry width="50" height="50" relative="1" as="geometry">
            <mxPoint x="854" y="160" as="sourcePoint" />
            <mxPoint x="854" y="74" as="targetPoint" />
          </mxGeometry>
        </mxCell>
        <mxCell id="PL7g-VCCAb1A2ByVVvl3-5" value="N" style="edgeLabel;html=1;align=center;verticalAlign=middle;resizable=0;points=[];" parent="PL7g-VCCAb1A2ByVVvl3-4" vertex="1" connectable="0">
          <mxGeometry x="-0.4381" y="-3" relative="1" as="geometry">
            <mxPoint x="-13" y="11" as="offset" />
          </mxGeometry>
        </mxCell>
        <mxCell id="PL7g-VCCAb1A2ByVVvl3-6" value="" style="endArrow=none;html=1;rounded=0;exitX=0;exitY=0.5;exitDx=0;exitDy=0;" parent="1" source="PL7g-VCCAb1A2ByVVvl3-3" target="c1m6tsCIZ5Yn01nc472a-1" edge="1">
          <mxGeometry width="50" height="50" relative="1" as="geometry">
            <mxPoint x="762" y="180" as="sourcePoint" />
            <mxPoint x="854" y="74" as="targetPoint" />
          </mxGeometry>
        </mxCell>
        <mxCell id="PL7g-VCCAb1A2ByVVvl3-7" value="N" style="edgeLabel;html=1;align=center;verticalAlign=middle;resizable=0;points=[];" parent="PL7g-VCCAb1A2ByVVvl3-6" vertex="1" connectable="0">
          <mxGeometry x="-0.4381" y="-3" relative="1" as="geometry">
            <mxPoint x="32" y="9" as="offset" />
          </mxGeometry>
        </mxCell>
        <mxCell id="PL7g-VCCAb1A2ByVVvl3-8" value="" style="endArrow=none;html=1;rounded=0;entryX=0.5;entryY=1;entryDx=0;entryDy=0;" parent="1" source="c1m6tsCIZ5Yn01nc472a-2" target="PL7g-VCCAb1A2ByVVvl3-3" edge="1">
          <mxGeometry width="50" height="50" relative="1" as="geometry">
            <mxPoint x="772" y="190" as="sourcePoint" />
            <mxPoint x="864" y="84" as="targetPoint" />
          </mxGeometry>
        </mxCell>
        <mxCell id="PL7g-VCCAb1A2ByVVvl3-9" value="N" style="edgeLabel;html=1;align=center;verticalAlign=middle;resizable=0;points=[];" parent="PL7g-VCCAb1A2ByVVvl3-8" vertex="1" connectable="0">
          <mxGeometry x="-0.4381" y="-3" relative="1" as="geometry">
            <mxPoint x="122" y="-72" as="offset" />
          </mxGeometry>
        </mxCell>
        <mxCell id="pAPx3wbxrduEwmlHnccX-4" value="" style="endArrow=none;html=1;rounded=0;" parent="1" source="c1m6tsCIZ5Yn01nc472a-10" target="c1m6tsCIZ5Yn01nc472a-2" edge="1">
          <mxGeometry width="50" height="50" relative="1" as="geometry">
            <mxPoint x="897" y="281" as="sourcePoint" />
            <mxPoint x="897" y="184" as="targetPoint" />
          </mxGeometry>
        </mxCell>
        <mxCell id="pAPx3wbxrduEwmlHnccX-5" value="N" style="edgeLabel;html=1;align=center;verticalAlign=middle;resizable=0;points=[];" parent="pAPx3wbxrduEwmlHnccX-4" vertex="1" connectable="0">
          <mxGeometry x="-0.4381" y="-3" relative="1" as="geometry">
            <mxPoint x="71" y="-10" as="offset" />
          </mxGeometry>
        </mxCell>
        <mxCell id="pAPx3wbxrduEwmlHnccX-6" value="type" style="ellipse;whiteSpace=wrap;html=1;" parent="1" vertex="1">
          <mxGeometry x="520" y="-50" width="50" height="34" as="geometry" />
        </mxCell>
        <mxCell id="pAPx3wbxrduEwmlHnccX-7" value="" style="endArrow=none;html=1;rounded=0;" parent="1" source="pAPx3wbxrduEwmlHnccX-6" target="c1m6tsCIZ5Yn01nc472a-1" edge="1">
          <mxGeometry width="50" height="50" relative="1" as="geometry">
            <mxPoint x="461" y="44" as="sourcePoint" />
            <mxPoint x="449" y="44" as="targetPoint" />
          </mxGeometry>
        </mxCell>
        <mxCell id="pAPx3wbxrduEwmlHnccX-9" value="title" style="ellipse;whiteSpace=wrap;html=1;" parent="1" vertex="1">
          <mxGeometry x="451" y="-50" width="50" height="34" as="geometry" />
        </mxCell>
        <mxCell id="pAPx3wbxrduEwmlHnccX-10" value="" style="endArrow=none;html=1;rounded=0;" parent="1" source="pAPx3wbxrduEwmlHnccX-9" target="c1m6tsCIZ5Yn01nc472a-1" edge="1">
          <mxGeometry width="50" height="50" relative="1" as="geometry">
            <mxPoint x="521" y="-6" as="sourcePoint" />
            <mxPoint x="521" y="14" as="targetPoint" />
          </mxGeometry>
        </mxCell>
        <mxCell id="pAPx3wbxrduEwmlHnccX-12" value="added_at" style="ellipse;whiteSpace=wrap;html=1;" parent="1" vertex="1">
          <mxGeometry x="910" y="16.13" width="70" height="35.75" as="geometry" />
        </mxCell>
        <mxCell id="pAPx3wbxrduEwmlHnccX-13" value="" style="endArrow=none;html=1;rounded=0;" parent="1" source="YuNYO20cdC75H4IHi-dq-4" target="pAPx3wbxrduEwmlHnccX-12" edge="1">
          <mxGeometry width="50" height="50" relative="1" as="geometry">
            <mxPoint x="931" y="154" as="sourcePoint" />
            <mxPoint x="954" y="154" as="targetPoint" />
          </mxGeometry>
        </mxCell>
        <mxCell id="pAPx3wbxrduEwmlHnccX-17" value="" style="endArrow=none;html=1;rounded=0;" parent="1" source="c1m6tsCIZ5Yn01nc472a-5" target="c1m6tsCIZ5Yn01nc472a-36" edge="1">
          <mxGeometry width="50" height="50" relative="1" as="geometry">
            <mxPoint x="931" y="181" as="sourcePoint" />
            <mxPoint x="960" y="80" as="targetPoint" />
          </mxGeometry>
        </mxCell>
      </root>
    </mxGraphModel>
  </diagram>
</mxfile>
